P3
3 3
255
255 255 255  255 255 255  200 100 100
255 255 255  100 100 100  200 100 100
200 100 100  200 100 100  255 255 255